<svg version="1.2" xmlns="http://www.w3.org/2000/svg" viewBox="0 0 100 100" width="100" height="100">
	<title>base-kn-logo-letters-svg</title>
	<style>
		.s0 { fill: none } 
		.s1 { fill: #1667b0 } 
		.s2 { fill: #6594cb } 
	</style>
	<g id="layer1">
		<path id="path821" class="s0" d="m63.1 79.9l-30.7-0.1-19.1-24.1 7-29.9 27.7-13.2 27.6 13.3 6.7 30z"/>
		<path id="path823" class="s0" d="m84.3 43.5h-11.8l-8.9-7.5-2.1-11.5 5.8-10.2 11-4 11 4 5.9 10.1-2 11.6z"/>
		<path id="path985" fill-rule="evenodd" class="s1" d="m38.2 79.6h-5.7l-9.5-11.9c-6.9-8.7-9.5-12-9.5-12.1 0-0.1 1.6-6.8 3.5-14.9l3.4-14.8 13.7-6.6c7.5-3.6 13.8-6.5 13.8-6.5 0.2 0 15.5 7.4 15.5 7.4 0 0.1-0.6 1-1.2 2.2l-1.2 2 1.1 6c1 5.6 1 5.9 1.2 6 0.1 0.1 2.1 1.8 4.6 3.9l4.5 3.7h3.5c2 0 3.6 0 3.6 0.1 0 0 0.6 2.6 1.3 5.8 0.8 3.3 1.3 5.9 1.3 6 0 0-4.3 5.4-9.5 11.9l-9.5 11.9h-9.6c-5.3 0-12.1-0.1-15.3-0.1zm3.8-26.6l1.5-1.8c1.1-1.4 1.5-1.8 1.5-1.8 0 0.1 1.8 3.4 4 7.5l3.9 7.5h7.4l-0.1-0.2c0 0-2.5-4.6-5.5-10.1-3.5-6.5-5.3-10.1-5.3-10.1 0 0 2.4-3 5.2-6.5 2.9-3.6 5.2-6.5 5.2-6.6 0.1 0-0.7 0-3.7 0h-3.7l-5.2 6.5-5.1 6.6v-6.6l-0.1-6.5h-6.6v33.5h6.6z"/>
		<path id="path987" fill-rule="evenodd" class="s2" d="m68.4 39.4c-2.4-2-4.4-3.6-4.4-3.6 0-0.1-2-11-2-11.2 0 0 1.3-2.2 2.8-4.9l2.8-5 5.4-1.9c2.9-1.1 5.3-2 5.3-2 0 0 2.3 0.8 5.1 1.8 2.8 1 5.2 1.9 5.3 2l0.3 0.1 5.7 9.8-0.9 5.6c-0.6 3-1 5.6-1 5.6 0 0-2 1.7-4.3 3.7l-4.4 3.6h-0.2c-0.1 0.1-2.7 0.1-5.7 0.1h-5.5zm7.9-9.5c0-3.9 0-3.9 0.2-4.6 0.3-1 0.9-1.7 1.6-2 0.3-0.2 0.6-0.2 1-0.2 0.4 0 0.6 0 0.9 0.2q0.7 0.3 0.9 1.1c0.2 0.5 0.2 1.1 0.2 5.3v3.7h4.3v-4.5c0-4.1-0.1-4.5-0.1-4.8-0.1-0.8-0.3-1.4-0.6-2q-0.9-1.9-3.2-2.2c-0.5 0-1.4 0-1.8 0.1-1.2 0.2-2.3 0.8-3.1 1.8l-0.2 0.3-0.1-1.9h-4.2v13.2h4.2z"/>
	</g>
</svg>